<?xml version="1.0" encoding="UTF-8"?>
<svg id="Layer_2" data-name="Layer 2" xmlns="http://www.w3.org/2000/svg" viewBox="0 0 118.13 165.47">
  <defs>
    <style>
      .cls-1 {
        fill: #fff;
        stroke: #fff;
        stroke-miterlimit: 10;
      }
    </style>
  </defs>
  <g id="Layer_1-2" data-name="Layer 1">
    <path class="cls-1" d="m66.17,164.97c-7.36,0-16.14-.29-24.97-1.24-17.48-1.88-29.38-20.19-34.92-30.93-1.89-3.66-3.29-7.49-4.16-11.38-2.32-10.28-4.1-28.51,9.33-36.88V15.65c0-4.01,1.65-7.95,4.54-10.83,2.79-2.79,6.43-4.32,10.24-4.32h.04c3.92,0,7.62,1.54,10.41,4.32,2.79,2.79,4.33,6.5,4.33,10.45v33.64c2.7-2.88,6.53-4.67,10.77-4.67,3.94,0,7.65,1.54,10.44,4.33,1.77,1.77,3.04,3.92,3.73,6.26,2.71-3.27,6.81-5.35,11.38-5.35,3.95,0,7.66,1.54,10.44,4.33,2.79,2.79,4.33,6.5,4.33,10.44v1.34c2.7-2.88,6.53-4.68,10.78-4.68,3.95,0,7.66,1.54,10.44,4.33,2.79,2.79,4.33,6.5,4.33,10.44v.11c-.27,4.99-.62,9.75-1.03,14.15-3.68,39.34-12.86,57.82-19.9,66.39-4.09,4.97-10.21,8-16.81,8.33-3.36.16-8.13.33-13.72.33ZM26.21,4.5c-2.74,0-5.37,1.12-7.41,3.15-2.14,2.13-3.36,5.05-3.36,8v71.21l-1.03.57c-12.26,6.79-10.52,23.66-8.4,33.1.8,3.56,2.09,7.07,3.82,10.43,4.17,8.08,15.6,27.05,31.79,28.79,15.28,1.65,30.41,1.26,38.07.89,5.47-.27,10.54-2.77,13.92-6.87,6.69-8.14,15.42-25.88,19.01-64.22.4-4.33.74-9.02,1.01-13.94-.01-2.86-1.13-5.54-3.15-7.56s-4.74-3.15-7.62-3.15c-5.94,0-10.78,4.83-10.78,10.77h-4v-11.43c0-2.88-1.12-5.58-3.15-7.62s-4.74-3.15-7.62-3.15c-5.94,0-10.78,4.83-10.78,10.77h-4v-5.23c0-2.88-1.12-5.58-3.15-7.62-2.04-2.03-4.74-3.15-7.62-3.15-5.94,0-10.77,4.83-10.77,10.77h-4V15.27c0-2.88-1.12-5.58-3.15-7.62-2.04-2.03-4.73-3.15-7.6-3.15h-.03Z"/>
  </g>
</svg>