<?xml version="1.0" encoding="UTF-8"?>
<svg id="Layer_2" data-name="Layer 2" xmlns="http://www.w3.org/2000/svg" viewBox="0 0 118.13 171.34">
  <defs>
    <style>
      .cls-1 {
        fill: none;
        stroke-width: 5px;
      }

      .cls-1, .cls-2 {
        stroke: #fff;
        stroke-miterlimit: 10;
      }

      .cls-2 {
        fill: #fff;
      }
    </style>
  </defs>
  <g id="Layer_1-2" data-name="Layer 1">
    <g>
      <path class="cls-2" d="M40.99,64.89h-4V21.15c0-2.88-1.12-5.58-3.15-7.62-2.04-2.03-4.73-3.15-7.6-3.15h-.03c-2.74,0-5.37,1.12-7.41,3.15-2.14,2.13-3.36,5.05-3.36,8v71.21l-1.03.57c-12.26,6.79-10.52,23.66-8.4,33.1.8,3.56,2.09,7.07,3.82,10.43,4.17,8.08,15.6,27.05,31.79,28.79,15.28,1.65,30.41,1.26,38.07.89,5.47-.27,10.54-2.77,13.92-6.87,6.69-8.14,15.42-25.88,19.01-64.22.4-4.33.74-9.02,1.01-13.94-.01-2.86-1.13-5.54-3.15-7.56s-4.74-3.15-7.62-3.15c-5.94,0-10.78,4.83-10.78,10.77h-4v-11.43c0-2.88-1.12-5.58-3.15-7.62s-4.74-3.15-7.62-3.15c-5.94,0-10.78,4.83-10.78,10.77h-4v-15.73s3.4,6.31,3.4,6.31c2.71-3.27,6.81-5.35,11.38-5.35,3.95,0,7.66,1.54,10.44,4.33,2.79,2.79,4.33,6.5,4.33,10.44v1.34c2.7-2.88,6.53-4.68,10.78-4.68,3.95,0,7.66,1.54,10.44,4.33,2.79,2.79,4.33,6.5,4.33,10.44v.11c-.27,4.99-.62,9.75-1.03,14.15-3.68,39.34-12.86,57.82-19.9,66.39-4.09,4.97-10.21,8-16.81,8.33-3.36.16-8.13.33-13.72.33-7.36,0-16.14-.29-24.97-1.24-17.48-1.88-29.38-20.19-34.92-30.93-1.89-3.66-3.29-7.49-4.16-11.38-2.32-10.28-4.1-28.51,9.33-36.88V21.53c0-4.01,1.65-7.95,4.54-10.83,2.79-2.79,6.43-4.32,10.24-4.32h.04c3.92,0,7.62,1.54,10.41,4.32,2.79,2.79,4.33,6.5,4.33,10.45v43.74"/>
      <rect class="cls-2" x="36.99" y="62.89" width="4" height="21.06" rx="2" ry="2"/>
      <rect class="cls-2" x="62.54" y="67.18" width="4" height="21.06" rx="2" ry="2"/>
      <rect class="cls-2" x="88.08" y="79.55" width="4" height="21.06" rx="2" ry="2"/>
      <rect class="cls-2" x="11.43" y="86.68" width="4" height="21.06" rx="2" ry="2"/>
      <path class="cls-1" d="M38.99,60.1V15.27c0-7.05,5.72-12.77,12.77-12.77h0c7.05,0,12.77,5.72,12.77,12.77v44.82"/>
    </g>
  </g>
</svg>