<?xml version="1.0" encoding="UTF-8"?>
<svg id="Layer_2" data-name="Layer 2" xmlns="http://www.w3.org/2000/svg" viewBox="0 0 407.62 58.26">
  <defs>
    <style>
      .cls-1 {
        fill: #fff;
        stroke: #fff;
        stroke-miterlimit: 10;
        stroke-width: .25px;
      }
    </style>
  </defs>
  <g id="Layer_1-2" data-name="Layer 1">
    <g>
      <path class="cls-1" d="M385.39,39.21c.19-.52.28-.75.35-.94-.66-.47-1.28-.88-1.86-1.34-.42-.33-.79-.71-1.17-1.09-.22-.22-.34-.55-.58-.71-.43-.28-.94-.44-1.39-.7-.43-.25-.84-.56-1.25-.85.05-.08.09-.16.14-.23-.74-.31-1.48-.62-2.28-.96-.04.07.06-.1.19-.34-.6-.38-1.19-.75-1.9-1.2.03-.11.09-.37.16-.7-.32.04-.62.07-1.01.12.06-.29.1-.52.14-.75h-1.87v-.79c-.68-.3-1.27-.56-1.94-.86.16-.21.27-.36.48-.64-.49.03-.84.06-1.45.1.45-.43.72-.67,1.04-.97-.1-.12-.27-.33-.47-.57-.33.31-.65.61-1.03.96-.44-.67-.84-1.26-1.29-1.95.19-.23.46-.53.89-1.04-.02.54-.04.84-.05,1.2.31.16.67.35,1.04.55,1.24-1.32,1.8.76,2.83.5,0,.26,0,.47,0,.43,1.47.99,2.79,1.88,4.52,3.04.72.08,3.69,1.9,3.63,3.18,1.35.14,2.45.75,3.35,1.76.22.25.54.43.83.62.7.49,1.41.95,2.1,1.45.21.16.33.43.53.62.35.33.73.64,1.11.94.74.56,1.49,1.1,2.23,1.66.55.42,1.1.85,1.72,1.33-.01.02-.13.2-.14.21.51.42.97.83,1.46,1.2.29.22.68.31.95.54.81.71,1.46,1.66,2.38,2.15,1.65.89,2.71,2.41,4.21,3.44,1.37.94,2.61,2.08,3.82,3.05.07.57.02,1.17.24,1.63.23.47.73.81,1.36,1.48-1.38.4-2.46.72-3.55,1.03.02-.11.04-.21.06-.32-.37-.19-.73-.39-1.1-.58-.04.07-.07.14-.11.21.19.06.39.13.69.22-.95.31-1.46.07-1.72-.7-1.5.43-2.48-.76-3.74-1.13-.13.15-.28.33-.43.51-.05-.02-.09-.04-.14-.06.04-.16.07-.32.11-.48-.91-.27-2.03-.03-2.76-1.02-.06.12-.19.38-.38.75-1.93-.75-4.38-.48-5.96-2.51-1.44,1.14-2.94.19-4.49-.12,0,.1.01.27.02.52-.37-.5-1.16-.24-1.28-.95-.25.08-.49.16-.74.25l.12.25c-1.08-.23-2.16-.46-3.24-.7-.03.1-.06.2-.09.3-.29-.33-.58-.67-.94-1.08-.25.28-.46.51-.7.77-.02-.27-.04-.5-.04-.46-.64.13-1.24.39-1.82.36-3.4-.22-3.89-.4-4.63-1.56-.03,1.45-.99.55-1.26.65-.42-.32-.72-.54-.95-.71-.36.44-.7,1.02-.83.98-.75-.24-1.44-.64-2.28-1.04-.07.15-.26.52-.46.93-.55-.38-1.11-.97-1.88-.11v-1.15c-.51.24-.88.41-1.25.58-.4.18-.8.34-1.34.57.13-.66.21-1.01.28-1.36-.06-.04-.12-.08-.18-.11-.12.13-.31.24-.36.4-.28.9-.91,1.06-1.71.84-.8-.22-.59-.93-.55-1.44.02-.31.43-.58.63-.83-.01-.03.06.15.19.46.92-1.62,1.49.24,2.16-.17.17-.27.38-.75.46-.73.46.12.91.34,1.34.57.24.13.43.34.73.59.13-.52.21-.84.23-.91.88-.04,1.61-.12,2.34-.09.45.02.89.26,1.35.28.49.03.99-.14,1.48-.11,1.09.06,2.17.19,3.26.3.56.06,1.12.15,1.68.23v.72c.05.03.11.06.16.08.17-.27.34-.53.61-.94.49.39.98.77,1.46,1.15,0-.03.09-.28.17-.56.96-.06,1.93-.2,2.89-.15.75.04,1.5.27,2.23.5.2.06.29.45.46.72.43-.74,1.04-.73,1.81-.21.2.14.69-.24,1.04-.21,1.17.09,2.35.18,3.49.43,1.2.26,2.36.72,3.55,1.06,1.08.31,2.17.5,3.3.61.56.05,1.2.24,1.79.42.77.24.76.26,1.25-.44-1.39-.43-2.78-.85-4.33-1.33-.5-1-2.16-1.61-3.33-1.16-.21-.37-.32-.85-.6-.99-.32-.15-.79.01-1.38.05,0,.02-.06-.21-.14-.49-.25.03-.52.07-.84.11.21-.38.4-.71.61-1.08-.15-.01-.28-.06-.33-.02-.45.37-.9,1.67-1.31-.04-.02-.06-.52,0-.77,0-.29-.24-.79-.8-.92-.73-.61.35-.9.25-.96-.15-.7-.28-1.22-.49-1.73-.7-.5-.2-1-.39-1.62-.63-.04-.51-1.11-.91-2.07-.4v-1.37c-.26.36-.42.57-.43.59-.51-.19-1.02-.24-1.28-.52-.41-.43-.7-.76-1.26-.25-.04.04-.21-.05-.32-.09.06-.13.12-.27.25-.57-.92.72-1.48.48-1.76-.45-.27.17-.49.31-.71.45-.01-.2-.02-.41-.03-.49-.3-.07-.62-.15-.94-.23.09-.12.19-.24.31-.39-.69-.06-1.29-1.11-2.19-.14-.11-.38-.14-.9-.32-.96-.3-.1-.7.08-1.21.17-.42-.84-1.3-1.16-2.32-1.24-.08,0-.22-.07-.23-.13-.29-.94-.49-.48-.71.04-.02.05-.18.04-.39.08.11-.26.19-.45.23-.54-.59-.21-1.18-.42-1.95-.7.04-.04-.13.12-.26.24-1.34-.53-2.15-1.94-3.78-1.98-.64-.01-1.24-.68-1.99-.23-.05.03-.35-.38-.63-.69-.11.07-.38.22-.65.38-.18-.38-.34-.72-.5-1.06-.08.04-.17.09-.25.13.1.18.2.37.31.55-.67.16-1.1-.82-1.82-.34-.02.01-.2-.15-.24-.26-.36-1.1-.45-1.12-1.55-.69-.17.07-.51-.02-.62-.15-.57-.69-.56-.69-1.35-.43-.15.05-.32,0-.47,0v-.8c-.32.11-.64.21-1.09.36-.09-.21-.22-.53-.44-1.06-.46-.04-1.19-.1-2.04-.17,0,0,0-.25,0-.73-.99,1.18-1.79.1-2.59,0-.94-.76-1.81-1.7-3.32-.86.14-.31.21-.46.32-.7-.85-.09-1.62-.17-2.46-.25v-.76s-.08-.01-.12-.02c-.07.19-.14.38-.25.69-.63-.51-1.76-.07-2.06-1.13-1.26.18-2.47-.15-3.64-.81-.48-.27-1.04-.38-1.54-.6-.69-.3-1.36-.64-2.04-.95-.18-.08-.53-.18-.55-.14-.26.52-.61.17-.91.1-.74-.17-1.48-.33-2.21-.56-.36-.11-.68-.35-1.03-.52.09-.11.19-.22.28-.33-.12.13-.24.27-.43.48-.08-.28-.13-.48-.19-.71h-.78c-.12.04-.54.31-.7.2-.56-.39-1.54.2-1.85-.91-.08-.3-1.1-.33-1.82-.52,0,.01-.02-.18-.08-.66-.2.47-.28.68-.37.89-.97-.29-1.93-.57-2.88-.86.07-.2.14-.4.2-.59-.2-.03-.41-.11-.61-.09-.33.04-.66.14-.99.21-.88.18-.49-.61-.74-1-1.62.01-3.47.8-4.62-.89-.44.11-.84.22-1.28.33,0-.67-.63-1.13-1.22-.94-.56.18-1.1.5-1.46-.29-.02-.04-.18-.05-.25-.02-1.16.49-1.5-.54-2.14-1.18-.08.31-.14.58-.21.88-1.1-.41-2.16-.8-3.22-1.19-.01,0-.03.02-.04.03-.21-.11-.41-.26-.63-.32-.3-.08-.72-.22-.92-.09-.97.66-1.65-.17-2.43-.41-.47-.14-.94-.34-1.37-.57-.42-.22-.79-.44-.83.12-.35-.22-.67-.43-1-.63l-.04.23c-.41-.04-.82-.05-1.22-.15-.24-.06-.44-.27-.78-.48-.35.3-.81.48-1.45-.03-.46-.37-1.07-.41-1.75-.4-.98.03-1.97-.43-2.96-.67-.06-.02-.12-.07-.18-.07-.62.05-1.32.46-1.71-.45-.06-.15-.39-.18-.66-.28,0,.05-.04.28-.05.39-2.23-.42-4.44-.83-6.72-1.25-.08-.06-.27-.21-.35-.27-.61-.15-.94-.28-1.29-.31-1.19-.11-2.39-.16-3.58-.29-.21-.02-.38-.35-.58-.55-.57.79-1.41.58-2.01-.59-1.45-.07-2.86-.13-4.35-.2-.15-.1-.46-.32-.73-.5-.38.08-.78.27-1.16.24-1.3-.13-2.6-.32-3.89-.52-.64-.1-1.26-.29-1.9-.42-.31-.06-.63-.08-1.1-.14-.02-.04-.12-.27-.27-.6-.14.3-.26.55-.43.91-.17-.29-.3-.5-.5-.83-.15.31-.24.49-.35.71-1.07-.25-2.14-.54-3.23-.74-.6-.11-1.25.07-1.83-.08-.64-.17-1.19-.37-1.91-.3-1.06.11-2.16-.14-3.25-.24-1.82-.17-3.65-.32-5.46-.52-.66-.07-1.3-.29-1.97-.37-.43-.05-.87.07-1.3.05-.54-.02-1.08-.07-1.61-.18-.13-.03-.2-.33-.41-.7-.03,1.44-1.01.7-1.34.65-.76-.12-1.59.13-2.35-.47-.34-.26-1.22.17-1.89.29-.04-.23-.08-.44-.12-.63-1.4.93-2.91.11-4.36.26-1.45.15-2.96.08-4.09-.54-.55.08-.88.17-1.23.18-1.47.06-2.99.38-4.38.08-1.47-.32-2.86-.14-4.29-.19-1.25-.04-2.49-.27-3.74-.31-.85-.02-1.7.21-2.55.21-1.45,0-2.9-.1-4.35-.12-.39,0-.78.22-1.17.2-1.04-.04-2.07-.17-3.11-.23-.41-.02-.83.05-1.24.08-1.39.1-2.77.24-4.16.29-2.64.1-5.28.12-7.92.24-1.79.08-3.58.29-5.36.42-1.67.12-3.34.17-5,.33-1.58.15-3.14.42-4.72.6-.71.08-1.44.03-2.15.09-1.35.12-2.7.28-4.04.42-2.14.22-4.28.4-6.41.67-1.24.16-2.45.51-3.69.68-1.34.19-2.69.26-4.04.41-.67.07-1.33.21-2,.32-.98.16-1.98.56-2.92.44-1.39-.18-2.47.65-3.75.76-.7.06-1.38.33-2.08.46-2.19.42-4.38.83-6.58,1.21-.86.15-1.76.13-2.62.28-.57.1-1.09.41-1.65.55-2.05.49-4.12.93-6.17,1.43-2.29.55-4.57,1.14-6.86,1.71-2.74.68-5.49,1.3-8.21,2.04-3.58.97-7.13,2.04-10.7,3.06-2.02.57-4.06,1.07-6.07,1.68-2.06.62-4.09,1.34-6.14,2.02-1.49.49-2.98.99-4.48,1.44-.35.1-.76-.02-.93-.03-.35.27-.55.52-.8.61-1.95.73-3.91,1.4-5.86,2.14-2.92,1.1-5.82,2.23-8.74,3.34-1.16.44-2.36.79-3.5,1.27-1.99.83-3.96,1.73-5.94,2.6-2.43,1.06-4.87,2.11-7.3,3.19-2.34,1.04-4.67,2.09-6.98,3.18-2,.94-3.99,1.9-5.93,2.95-1.71.92-3.34,1.99-5.01,2.98-.63.38-1.27.76-1.93,1.06-.31.14-.71.1-1.19.16-.09.63-1.26,1.21-2.14.57.05,1.52-1.27,1.67-2.12,2.26-1.14.79-2.34,1.52-3.57,2.15-1.41.72-2.91,1.26-4.33,1.97-.49.24-.84.75-1.25,1.14-.3.28-.56.6-.88.85-.37.3-.75.63-1.18.78-.45.16-1.02.28-1.45.14-.35-.11-.52-.5-.32-1.1.43-1.24.35-1.22,1.92-2.23.76-.49,1.34-1.24,2.06-1.92.17.34.28.55.44.87.12-1.04.73-1.37,1.53-1.61.52-.16.94-.61,1.44-.87.63-.33,1.27-.74,1.96-.87.53-.1.59-.4.85-.72.29-.35.87-.45,1.26-.74.44-.33.77-.83,1.24-1.12.58-.37,1.22-.65,1.86-.9.73-.28,1.47-.5,1.85-1.2,1.28.52,1.39-.89,2.15-1.28.08.2.15.39.24.63,1.87-1.77,4.06-2.78,6.59-3.34-.01-.03-.07-.2-.08-.23.55-.44,1.05-.86,1.54-1.25.08.06.27.18.46.31.15-.23.29-.46.34-.55.79-.39,1.68-.57,2.15-1.11.66-.77,1.49-.97,2.32-1.31.76-.31,1.41-.97,2.19-1.16,1.47-.35,2.89-.77,4.22-1.48.11-.06.33.08.54.14-.03-.2-.06-.38-.1-.66.24.18.41.29.62.44-.11-1.23.93-1.1,1.55-1.34.69-.27,1.46-.34,2.26-.52.04-.11.09-.64.35-.79.38-.21.92-.15,1.24-.18.41-.33.76-.61,1.35-1.08-.14.45-.19.61-.24.76.04.04.09.08.13.12.32-.34.65-.68,1-1.05.07.18.13.35.1.27.6-.23,1.16-.45,1.72-.66l1.56-.63c.17-.06.48-.1.49-.18.05-.5.19-.41.58-.28.19.07.57-.41.9-.67.18.05.44.12.86.24-.15-.29-.23-.43-.38-.71.59,0,1.12,0,1.65,0,.14,0,.33.08.42.01.67-.47,1.27-1.07,2-1.42,1.05-.5,2.19-.83,3.3-1.22.68-.24,1.39-.43,2.05-.72.87-.39,1.68-.53,2.37.22.41-.52.81-1.03,1.35-1.71.75,0,1.71-.11,2.45-.92.12-.13.52.05.76-.02.53-.16,1.03-.4,1.56-.57.81-.26,1.86-.27,2.39-.8.57-.58,1.09.29,1.75-.4.75-.78,2.22-.88,3.39-1.26.78-.26,1.56-.54,2.36-.76,1.54-.43,3.08-.81,4.62-1.25,1.11-.32,2.2-.75,3.32-1.01,1.6-.37,3.04-1.2,4.73-1.38,1.46-.16,2.86-.84,4.3-1.24.34-.09.74.04,1.11.08-.05.29-.09.58-.14.85.57-.53,1.08-1.21,1.76-1.57.68-.36,1.53-.39,2.35-.58,0,.04,0,.22,0,.19.64-.15,1.24-.34,1.85-.42.7-.08,1.37-.22,1.94-.62.46-.33.88-.57,1.43-.26.05.03.13,0,.19-.02.95-.37,1.89-.76,2.85-1.1.31-.11.65-.13.99-.16,1.34-.11,2.68-.2,4.02-.31.15-.01.29-.07.43-.12.68-.2,1.35-.41,2.03-.61.15-.05.4-.02.46-.12.67-1.21,2.01-.7,2.96-.94.76-.19,1.81-.57,2.74-.16.8-.9,1.98-.49,2.95-.83.93-.33,1.99-.73,2.89-.56,1.06.2,1.57-.45,2.34-.7,1.18-.38,2.53-.2,3.72-.55,1.07-.31,2.31.4,3.24-.57.09-.1.37-.16.45-.09,1.08.9,1.9-.02,2.85-.31.88-.27,1.85-.25,2.78-.39.36-.05.69-.22,1.05-.27,1.98-.3,3.95-.63,5.93-.85,1.21-.14,2.44-.12,3.66-.17.79-.03,1.59-.04,2.38-.1.22-.02.42-.24.64-.26,1.18-.1,2.37-.13,3.55-.26.9-.09,1.79-.29,2.73-.44.02.04.09.23.14.33,2.35-.77,4.64-.8,7.08-.04-.11-.25-.17-.38-.29-.66.63.03,1.23.05,2.03.09-.19.1-.17.08-.14.07-.1-.14-.2-.28-.4-.56,1.06.15,2.02.28,2.97.41-.05-.08-.14-.21-.29-.44.31-.05.63-.21.79-.11,1.09.66,2.28.24,3.3.08,1.16-.19,2.26,0,3.38-.07.32-.02.65.16.84.21.47-.14.9-.44,1.25-.35,1.33.32,2.6.09,3.91-.14.8-.14,1.65-.07,2.47-.02,1.4.08,2.79.22,4.19.32.28.02.55,0,1.06,0,.44-.76,1.52-.34,2.35-.4,1.18-.09,2.38.27,3.58.31.96.03,1.92-.14,2.89-.2.34-.02.69-.03,1.02.04,1.8.33,3.57.59,5.39-.03.45-.15,1.03.36,1.64.11.21-.09.56.23.85.23.29,0,.59-.17.95-.28-.03.29-.05.49-.06.62.27-.09.55-.27.83-.25.84.04,1.68.19,2.52.24.67.04,1.36-.04,2.03.02,1.06.08,2.1.26,3.16.35.59.05,1.19,0,1.78-.03.55-.03,1.06-.21,1.6.25.26.22.87,0,1.32,0,1.72.06,3.45-.02,5.14.25,1.27.2,2.66,0,3.78.44,1.35.54,2.78-.23,4.1.7.59.41,1.75-.03,2.64.02.59.03,1.33.54,1.73.32.92-.5,1.23.55,1.62.49.93-.14,1.76-.2,2.68-.2,1.23,0,2.35.49,3.56.58,1.16.09,2.59-.07,3.78.82.55.41,1.64.12,2.48.14.49.01.98,0,1.47.06.12.01.2.29.37.19.42.11.83.23,1.25.32.84.16,1.68.29,2.52.45.17.03.31.14.47.21,1.24.5,2.48.06,3.65.26.38.12.76.26,1.16.36.88.22,1.75.46,2.64.63,1.88.36,3.77.69,5.66,1.02,1.25.22,2.52.37,3.76.64,1.82.4,3.62.9,5.42,1.34,1.12.28,2.26.51,3.38.8,1.38.35,2.75.96,4.14,1.04,1.37.08,2.49.79,3.79.98,1.81.27,3.59.73,5.36,1.16.79.19,1.55.53,2.33.77,1.23.38,2.45.87,3.72,1.05,1.32.19,2.43.95,3.81,1,.92.03,1.8.69,2.73.92,1.21.3,2.46.4,3.67.7.66.16,1.25.6,1.91.82,1.44.49,2.9.93,4.36,1.37,1.55.47,3.11.88,4.64,1.39,1.07.35,2.06.96,3.14,1.21,1.19.29,2.33.81,3.6.84.49.01.95.4,1.45.58,2.27.8,4.55,1.58,6.81,2.4,1.37.49,2.75.97,4.05,1.61.42.21.72.39,1.22.43.43.03.82.51,1.06.67.39,0,.67-.07.89.01.51.19.97.5,1.49.67,1.95.64,3.86,1.3,5.64,2.36.75.44,1.68.56,2.53.86.42.15.81.39,1.24.51.34.1.74,0,1.06.13,1.48.62,2.94,1.29,4.41,1.94,1.62.72,3.24,1.45,4.87,2.14.22.09.54-.09.64-.1.28.25.44.45.64.54.41.17.87.25,1.28.42,1.24.54,2.47,1.09,3.7,1.67.55.26,1.06.6,1.61.86,1.86.89,3.72,1.79,5.61,2.62.88.39,1.83.63,2.89.98-.03-.34.06-.81-.12-.96-.94-.78-1.95-1.48-3.03-2.28-.03-1.21-1.37-1.51-2.18-2.09-.88-.63-1.47-2.06-3.14-1.4ZM394.53,45.59c.01,1.02,1.01,1.85,2.05,1.71-.71-.6-1.33-1.11-2.05-1.71Z"/>
      <path class="cls-1" d="M356.12,48.13c-.34.14-.68.28-.97.41-.46-.29-.92-.57-1.37-.85.06-.2.13-.4.19-.6.66-.08,1.3-.08,1.75-.8.14-.23.95-.04,1.45-.04,0,.12.02.24.02.36-.4.15-.79.29-1.33.5.06.29.15.67.23,1.05,0,0,.03-.03.03-.03Z"/>
      <path class="cls-1" d="M353.97,47.08c-.06.2-.13.4-.19.6-.79-.08-1.07-.51-.89-1.26.47-.12.9-.22,1.3-.32.09.27.19.56.31.9-.17.03-.35.06-.53.09Z"/>
      <path class="cls-1" d="M356.09,48.15c.15-.16.3-.31.44-.47.2-.24.39-.49.59-.74l.29.2-.94,1.63c-.1-.04-.19-.08-.29-.12-.02-.17-.04-.35-.06-.52,0,0-.03.03-.03.03Z"/>
    </g>
  </g>
</svg>